<svg width="67" height="10" viewBox="0 0 67 10" fill="none" xmlns="http://www.w3.org/2000/svg">
<path d="M0.2957 9H1.40312L2.25273 6.58008H5.61601L6.46562 9H7.57304L4.45586 0.544922H3.41289L0.2957 9ZM3.8875 1.91016H3.98125L5.30547 5.68359H2.56328L3.8875 1.91016ZM11.039 9.11133C12.5566 9.11133 13.4062 8.29688 13.664 7.1543L13.6757 7.08984L12.6679 7.0957L12.6562 7.13086C12.4218 7.83398 11.8827 8.20898 11.0331 8.20898C9.90812 8.20898 9.18156 7.27734 9.18156 5.82422V5.8125C9.18156 4.38867 9.8964 3.47461 11.0331 3.47461C11.9413 3.47461 12.5038 3.97852 12.662 4.59961L12.6679 4.61719H13.6816L13.6757 4.58203C13.4882 3.45703 12.5683 2.57227 11.0331 2.57227C9.26359 2.57227 8.13859 3.84961 8.13859 5.8125V5.82422C8.13859 7.82812 9.26945 9.11133 11.039 9.11133ZM17.6338 9.11133C19.1514 9.11133 20.001 8.29688 20.2588 7.1543L20.2705 7.08984L19.2627 7.0957L19.251 7.13086C19.0166 7.83398 18.4776 8.20898 17.628 8.20898C16.503 8.20898 15.7764 7.27734 15.7764 5.82422V5.8125C15.7764 4.38867 16.4912 3.47461 17.628 3.47461C18.5362 3.47461 19.0987 3.97852 19.2569 4.59961L19.2627 4.61719H20.2764L20.2705 4.58203C20.083 3.45703 19.1631 2.57227 17.628 2.57227C15.8584 2.57227 14.7334 3.84961 14.7334 5.8125V5.82422C14.7334 7.82812 15.8643 9.11133 17.6338 9.11133ZM24.2228 9.11133C25.7111 9.11133 26.6134 8.26758 26.8302 7.41211L26.8419 7.36523H25.8224L25.799 7.41797C25.6291 7.79883 25.1017 8.20312 24.2462 8.20312C23.1212 8.20312 22.4005 7.44141 22.3712 6.13477H26.9181V5.73633C26.9181 3.84961 25.8752 2.57227 24.1584 2.57227C22.4416 2.57227 21.3283 3.9082 21.3283 5.85938V5.86523C21.3283 7.8457 22.4181 9.11133 24.2228 9.11133ZM24.1525 3.48047C25.0841 3.48047 25.7755 4.07227 25.881 5.32031H22.3888C22.5002 4.11914 23.215 3.48047 24.1525 3.48047ZM30.5481 9.11133C31.9837 9.11133 33.0794 8.33203 33.0794 7.20703V7.19531C33.0794 6.29297 32.5052 5.77734 31.3157 5.49023L30.343 5.25586C29.5989 5.07422 29.2825 4.80469 29.2825 4.37695V4.36523C29.2825 3.80859 29.8333 3.42188 30.5833 3.42188C31.345 3.42188 31.8372 3.76758 31.972 4.26562H32.9739C32.8333 3.23438 31.9134 2.57227 30.5891 2.57227C29.2473 2.57227 28.2395 3.36328 28.2395 4.41211V4.41797C28.2395 5.32617 28.7727 5.8418 29.9563 6.12305L30.9348 6.35742C31.7141 6.54492 32.0364 6.84375 32.0364 7.27148V7.2832C32.0364 7.85742 31.4329 8.26172 30.5833 8.26172C29.7747 8.26172 29.2708 7.91602 29.1009 7.38867H28.0579C28.1751 8.43164 29.1419 9.11133 30.5481 9.11133ZM36.5922 9.11133C38.0277 9.11133 39.1234 8.33203 39.1234 7.20703V7.19531C39.1234 6.29297 38.5492 5.77734 37.3598 5.49023L36.3871 5.25586C35.643 5.07422 35.3266 4.80469 35.3266 4.37695V4.36523C35.3266 3.80859 35.8773 3.42188 36.6273 3.42188C37.3891 3.42188 37.8812 3.76758 38.016 4.26562H39.018C38.8773 3.23438 37.9574 2.57227 36.6332 2.57227C35.2914 2.57227 34.2836 3.36328 34.2836 4.41211V4.41797C34.2836 5.32617 34.8168 5.8418 36.0004 6.12305L36.9789 6.35742C37.7582 6.54492 38.0805 6.84375 38.0805 7.27148V7.2832C38.0805 7.85742 37.477 8.26172 36.6273 8.26172C35.8187 8.26172 35.3148 7.91602 35.1449 7.38867H34.102C34.2191 8.43164 35.1859 9.11133 36.5922 9.11133ZM43.1812 9.11133C44.98 9.11133 46.0933 7.86914 46.0933 5.84766V5.83594C46.0933 3.80859 44.98 2.57227 43.1812 2.57227C41.3823 2.57227 40.2691 3.80859 40.2691 5.83594V5.84766C40.2691 7.86914 41.3823 9.11133 43.1812 9.11133ZM43.1812 8.20898C41.9859 8.20898 41.312 7.33594 41.312 5.84766V5.83594C41.312 4.3418 41.9859 3.47461 43.1812 3.47461C44.3765 3.47461 45.0503 4.3418 45.0503 5.83594V5.84766C45.0503 7.33594 44.3765 8.20898 43.1812 8.20898ZM47.5553 9H48.5748V5.08594C48.5748 4.16016 49.2662 3.54492 50.2389 3.54492C50.4616 3.54492 50.6549 3.56836 50.8659 3.60352V2.61328C50.7662 2.5957 50.5494 2.57227 50.3561 2.57227C49.5006 2.57227 48.9088 2.95898 48.6686 3.62109H48.5748V2.68359H47.5553V9ZM52.5447 1.46484C52.9314 1.46484 53.2478 1.14844 53.2478 0.761719C53.2478 0.375 52.9314 0.0585938 52.5447 0.0585938C52.158 0.0585938 51.8416 0.375 51.8416 0.761719C51.8416 1.14844 52.158 1.46484 52.5447 1.46484ZM52.0291 9H53.0486V2.68359H52.0291V9ZM57.4286 9.11133C58.9169 9.11133 59.8192 8.26758 60.036 7.41211L60.0477 7.36523H59.0282L59.0048 7.41797C58.8348 7.79883 58.3075 8.20312 57.452 8.20312C56.327 8.20312 55.6063 7.44141 55.577 6.13477H60.1239V5.73633C60.1239 3.84961 59.0809 2.57227 57.3641 2.57227C55.6473 2.57227 54.5341 3.9082 54.5341 5.85938V5.86523C54.5341 7.8457 55.6239 9.11133 57.4286 9.11133ZM57.3583 3.48047C58.2899 3.48047 58.9813 4.07227 59.0868 5.32031H55.5946C55.7059 4.11914 56.4208 3.48047 57.3583 3.48047ZM63.7539 9.11133C65.1894 9.11133 66.2852 8.33203 66.2852 7.20703V7.19531C66.2852 6.29297 65.7109 5.77734 64.5215 5.49023L63.5488 5.25586C62.8047 5.07422 62.4883 4.80469 62.4883 4.37695V4.36523C62.4883 3.80859 63.0391 3.42188 63.7891 3.42188C64.5508 3.42188 65.043 3.76758 65.1777 4.26562H66.1797C66.0391 3.23438 65.1191 2.57227 63.7949 2.57227C62.4531 2.57227 61.4453 3.36328 61.4453 4.41211V4.41797C61.4453 5.32617 61.9785 5.8418 63.1621 6.12305L64.1406 6.35742C64.9199 6.54492 65.2422 6.84375 65.2422 7.27148V7.2832C65.2422 7.85742 64.6387 8.26172 63.7891 8.26172C62.9805 8.26172 62.4766 7.91602 62.3066 7.38867H61.2637C61.3809 8.43164 62.3477 9.11133 63.7539 9.11133Z" fill="#1D1D1F"/>
</svg>
